<mxfile host="app.diagrams.net" modified="2022-04-02T14:51:52.189Z" agent="5.0 (Macintosh; Intel Mac OS X 10_15_7) AppleWebKit/537.36 (KHTML, like Gecko) Chrome/100.0.4896.60 Safari/537.36" etag="gVZDba9M13J4ANm0CH5o" version="17.4.0" type="github">
  <diagram id="_oih3TUk36DtWug1QCqF" name="Page-1">
    <mxGraphModel dx="786" dy="488" grid="1" gridSize="10" guides="1" tooltips="1" connect="1" arrows="1" fold="1" page="1" pageScale="1" pageWidth="827" pageHeight="1169" math="0" shadow="0">
      <root>
        <mxCell id="0" />
        <mxCell id="1" parent="0" />
        <mxCell id="3notvKiT8Yr5XSLdrXbs-1" value="" style="rounded=0;whiteSpace=wrap;html=1;" vertex="1" parent="1">
          <mxGeometry x="80" y="170" width="190" height="110" as="geometry" />
        </mxCell>
      </root>
    </mxGraphModel>
  </diagram>
</mxfile>
